<svg width="34" height="34" viewBox="0 0 34 34" fill="none" xmlns="http://www.w3.org/2000/svg">
<g id="Avatar" clip-path="url(#clip0_323_123)">
<path id="Polygon" d="M17 0L29.0208 4.97919L34 17L29.0208 29.0208L17 34L4.97919 29.0208L0 17L4.97919 4.97919L17 0Z" fill="#100A37"/>
<path id="Vector" d="M15.8667 4.83105C16.5681 4.43465 17.4324 4.43465 18.1338 4.83105L27.2004 9.95505C27.9016 10.3513 28.3335 11.0835 28.3335 11.8759V22.1249C28.3335 22.9173 27.9016 23.6495 27.2004 24.0458L18.1338 29.1698C17.4324 29.5662 16.5681 29.5662 15.8667 29.1698L6.8001 24.0458C6.09896 23.6495 5.66699 22.9173 5.66699 22.1249V11.8759C5.66699 11.0835 6.09896 10.3513 6.8001 9.95505L15.8667 4.83105Z" fill="#96BEDC"/>
<path id="Vector_2" d="M16.6604 6.15958C16.8942 6.02737 17.1824 6.02737 17.4162 6.15958L26.3884 11.2317C26.622 11.3638 26.766 11.6079 26.766 11.8719V22.0168C26.766 22.281 26.622 22.525 26.3884 22.6571L17.4162 27.7292C17.1824 27.8614 16.8942 27.8614 16.6604 27.7292L7.68817 22.6571C7.45454 22.525 7.31055 22.281 7.31055 22.0168V11.8719C7.31055 11.6079 7.45454 11.3638 7.68817 11.2317L16.6604 6.15958Z" fill="#100A37"/>
<path id="Vector_3" d="M8.15511 24.8111L6.53739 23.8968C5.99957 23.5929 5.66699 23.0229 5.66699 22.4051L11.7446 13.3041C12.4074 12.3115 13.5373 11.7133 14.7488 11.7133H16.4997L8.15511 24.8111Z" fill="white"/>
<path id="Vector_4" d="M12.0168 26.9938L9.10727 25.3495L17.5853 11.7133H21.2592L12.0168 26.9938Z" fill="white"/>
<path id="Vector_5" fill-rule="evenodd" clip-rule="evenodd" d="M23.8308 24.1033L20.6061 25.9263L17.0947 20.5494L19.2481 17.0188L23.8308 24.1033ZM26.7659 20.456V22.0173C26.7659 22.2814 26.6219 22.5254 26.3883 22.6575L24.7498 23.5838L19.8714 15.9189L21.7413 12.8505L26.7659 20.456Z" fill="#28A0F0"/>
</g>
<defs>
<clipPath id="clip0_323_123">
<rect width="34" height="34" fill="white"/>
</clipPath>
</defs>
</svg>
