<svg width="151" height="150" viewBox="0 0 151 150" fill="none" xmlns="http://www.w3.org/2000/svg">
<g id="Circles Container">
<circle id="Circle" cx="75.5" cy="75" r="74.879" fill="#0F0E0E" stroke="white" stroke-width="0.241935"/>
<path id="Circle_2" d="M105.873 28.3755C95.4665 21.596 83.0908 18.4932 70.7166 19.5608C58.3424 20.6285 46.6811 25.8053 37.5894 34.2671" stroke="#99CDF7" stroke-width="29.0323"/>
<path id="Circle_3" d="M89.003 128.982C99.6796 126.311 109.325 120.535 116.718 112.383C124.112 104.23 128.922 94.0688 130.54 83.1829C132.159 72.297 130.513 61.1756 125.81 51.2252C121.108 41.2747 113.561 32.942 104.123 27.281" stroke="white" stroke-width="29.0323"/>
<path id="Circle_4" d="M26.3619 101.112C32.1901 112.08 41.5202 120.782 52.8665 125.834C64.2129 130.886 76.9232 131.997 88.9738 128.989" stroke="#E48373" stroke-width="29.0323"/>
<path id="Circle_5" d="M89.6051 21.1722C77.5906 18.0239 64.8682 18.9856 53.4634 23.9043C42.0587 28.8229 32.6274 37.4157 26.6711 48.3145" stroke="#C9E7AC" stroke-width="29.0323"/>
<path id="Circle_6" d="M38.203 33.7045C32.0172 39.2914 27.1655 46.1966 24.0064 53.91" stroke="#50EFFF" stroke-width="29.0323"/>
<path id="Circle_7" d="M24.4069 52.9572C21.0346 60.7739 19.5008 69.2602 19.9235 77.7628C20.3462 86.2654 22.7141 94.5577 26.845 102.001" stroke="#F19C5D" stroke-width="29.0323"/>
</g>
</svg>
