<svg width="20" height="20" viewBox="0 0 20 20" fill="none" xmlns="http://www.w3.org/2000/svg">
<g id="vuesax/bulk/copy">
<g id="copy">
<path id="Vector" d="M13.3333 10.75V14.25C13.3333 17.1667 12.1667 18.3333 9.25 18.3333H5.75C2.83333 18.3333 1.66666 17.1667 1.66666 14.25V10.75C1.66666 7.83332 2.83333 6.66666 5.75 6.66666H9.25C12.1667 6.66666 13.3333 7.83332 13.3333 10.75Z" fill="#055DF5"/>
<path id="Vector_2" opacity="0.4" d="M14.25 1.66666H10.75C7.875 1.66666 6.70834 2.80832 6.675 5.62499H9.25C12.75 5.62499 14.375 7.24999 14.375 10.75V13.325C17.1917 13.2917 18.3333 12.125 18.3333 9.24999V5.74999C18.3333 2.83332 17.1667 1.66666 14.25 1.66666Z" fill="#055DF5"/>
</g>
</g>
</svg>
