<svg width="16" height="16" viewBox="0 0 16 16" fill="none" xmlns="http://www.w3.org/2000/svg">
<g id="vuesax/bulk/link-2">
<g id="link-2">
<path id="Vector" d="M12.7133 9.49332C12.52 9.68665 12.2133 9.68665 12.0267 9.49332C11.8333 9.29998 11.8333 8.99332 12.0267 8.80665C13.36 7.47332 13.36 5.30665 12.0267 3.97998C10.6933 2.65332 8.52667 2.64665 7.2 3.97998C5.87333 5.31332 5.86667 7.47998 7.2 8.80665C7.39333 8.99998 7.39333 9.30665 7.2 9.49332C7.00667 9.68665 6.7 9.68665 6.51333 9.49332C4.8 7.77998 4.8 4.99332 6.51333 3.28665C8.22667 1.57998 11.0133 1.57332 12.72 3.28665C14.4267 4.99998 14.4267 7.77998 12.7133 9.49332Z" fill="#CCF1DD"/>
<path id="Vector_2" opacity="0.4" d="M12.7133 3.28668C14.4267 5.00001 14.4267 7.78001 12.7133 9.49335C12.1267 10.08 11.4067 10.4667 10.6533 10.6533C11.0067 9.21335 10.62 7.63335 9.49333 6.50668C8.36666 5.38001 6.78666 4.99335 5.34666 5.34668C5.53333 4.59335 5.91333 3.87335 6.50666 3.28668C8.22 1.57335 11 1.57335 12.7133 3.28668Z" fill="#CCF1DD"/>
<path id="Vector_3" d="M3.28666 6.50666C3.47999 6.31333 3.78666 6.31333 3.97333 6.50666C4.16666 6.7 4.16666 7.00666 3.97333 7.19333C2.63999 8.52666 2.63999 10.6933 3.97333 12.02C5.30666 13.3467 7.47333 13.3533 8.79999 12.02C10.1267 10.6867 10.1333 8.52 8.79999 7.19333C8.60666 7 8.60666 6.69333 8.79999 6.50666C8.99333 6.31333 9.29999 6.31333 9.48666 6.50666C11.2 8.22 11.2 11.0067 9.48666 12.7133C7.77332 14.42 4.98666 14.4267 3.27999 12.7133C1.57333 11 1.57333 8.22 3.28666 6.50666Z" fill="#CCF1DD"/>
<path id="Vector_4" opacity="0.5" d="M9.49333 6.50665C10.62 7.63332 11.0067 9.21332 10.6533 10.6533C10.4667 11.4067 10.08 12.1267 9.49333 12.7133C7.78 14.4267 5 14.4267 3.28666 12.7133C1.57333 11 1.57333 8.21999 3.28666 6.50665C3.87333 5.91332 4.59333 5.53332 5.34666 5.34665C6.78666 4.99332 8.36666 5.37999 9.49333 6.50665Z" fill="#CCF1DD"/>
</g>
</g>
</svg>
