<svg width="20" height="13" viewBox="0 0 20 13" fill="none" xmlns="http://www.w3.org/2000/svg">
<g id="Logo">
<path id="Shape" d="M6.27799 12.5953C2.81627 12.5953 0 9.77907 0 6.31735C0 2.85563 2.81627 0.0390907 6.27799 0.0390907C7.11101 0.0365858 7.93607 0.201089 8.70443 0.52288C9.47278 0.84467 10.1688 1.31722 10.7515 1.91259L8.9079 3.72781C8.56542 3.37776 8.15622 3.09994 7.7045 2.91077C7.25278 2.7216 6.76772 2.62494 6.27799 2.62649C4.24299 2.62649 2.5882 4.28208 2.5882 6.31628C2.5882 8.35048 4.24379 10.0061 6.27799 10.0061C7.08436 10.0053 7.86838 9.74098 8.51061 9.25336C9.15283 8.76574 9.61807 8.08156 9.83543 7.30504L9.94051 6.87964C10.4766 4.93582 12.2608 3.57835 14.2779 3.57835C16.7594 3.57835 18.7781 5.59704 18.7781 8.07856C18.7781 10.5601 16.7602 12.5788 14.2779 12.5788C13.6867 12.5802 13.101 12.4644 12.5549 12.238C12.0087 12.0116 11.5129 11.6791 11.0961 11.2598L12.926 9.43068C13.2228 9.72725 13.6089 9.91799 14.0248 9.97349C14.4406 10.029 14.8632 9.94619 15.2274 9.73783C15.5916 9.52947 15.8771 9.20712 16.04 8.82047C16.2029 8.43382 16.2341 8.00433 16.1288 7.59819C16.0236 7.19205 15.7876 6.83181 15.4574 6.57298C15.1272 6.31415 14.721 6.17111 14.3015 6.1659C13.882 6.16069 13.4724 6.2936 13.1358 6.54414C12.7993 6.79469 12.5545 7.14896 12.4391 7.55236L12.3362 7.97054C11.594 10.6935 9.10309 12.5953 6.27799 12.5953Z" fill="white"/>
<g id="TM">
<path id="Vector" d="M17.5186 0H18.4648V0.238767H18.1405V1.22325H17.8426V0.238767H17.5186V0Z" fill="white"/>
<path id="Vector_2" d="M18.6147 0H18.9666L19.3099 0.847048L19.6498 0H19.9998V1.22325H19.7022V0.489833L19.4286 1.22325H19.188L18.9126 0.487961V1.22325H18.6147V0Z" fill="white"/>
</g>
</g>
</svg>
