<svg width="121" height="18" viewBox="0 0 121 18" fill="none" xmlns="http://www.w3.org/2000/svg">
<g id="Wordmark">
<path id="Vector" d="M0.811432 0.164368V17.8356H4.12346V1.36923L3.15957 0.164368H0.811432Z" fill="#100A37"/>
<path id="Vector_2" d="M12.097 0.164368L10.4209 1.59681L9.9443 0.164368H7.29361V17.8356H10.603V5.15784L12.8145 3.26755H20.9058V17.8356H24.175V1.93953L22.2473 0.164368H12.097Z" fill="#100A37"/>
<path id="Vector_3" d="M27.3451 1.88866V7.76034V10.6118V17.8356H30.6143V10.6118H40.2478V7.76034H30.6143V3.22739H40.9172V0.164368H29.3238L27.3451 1.88866Z" fill="#100A37"/>
<path id="Vector_4" d="M45.3992 0.164368L43.4206 1.88866V13.9774L47.4609 17.8356H59.3916V14.7726H48.8558L46.663 12.5798V10.6065H58.3287L60.318 8.97323V1.88866L58.326 0.164368H45.3992ZM56.9926 3.22739V7.76034H46.7326V3.22739H56.9926Z" fill="#100A37"/>
<path id="Vector_5" d="M66.7841 1.63697V1.36923L65.8229 0.164368H63.4748V17.8356H66.7841V5.28636L69.2795 3.22739H74.7362V0.164368H68.5753L66.7841 1.63697Z" fill="#100A37"/>
<path id="Vector_6" d="M90.8516 12.9814L88.4607 14.7325H80.5488V0.164368H77.2394V16.0632L79.2127 17.8356H89.13L91.0257 16.4139L91.4594 17.8356H94.1208V0.164368H90.8516V12.9814Z" fill="#100A37"/>
<path id="Vector_7" d="M114.052 3.22739V0.164368H99.2269L97.2937 1.89401V8.84739L110.743 11.6266V14.7351L97.1706 14.7753V17.8356H112.119L114.052 16.106V9.36146L100.606 6.57958V3.22739H114.052Z" fill="#100A37"/>
<path id="Vector_8" d="M117.533 2.09214H117.23V0.432114H116.596V0.164368H118.178V0.432114H117.533V2.09214Z" fill="#100A37"/>
<path id="Vector_9" d="M119.337 2.09214L118.716 0.61686V2.09214H118.448V0.164368H118.818L119.477 1.73068L120.127 0.164368H120.499V2.09214H120.232V0.614182L119.608 2.09214H119.337Z" fill="#100A37"/>
</g>
</svg>
