<svg width="24" height="24" viewBox="0 0 24 24" fill="none" xmlns="http://www.w3.org/2000/svg">
<g id="vuesax/outline/received">
<g id="received">
<path id="Vector" d="M4.99994 18.2499C4.80994 18.2499 4.61994 18.1799 4.46994 18.0299C4.17994 17.7399 4.17994 17.2599 4.46994 16.9699L18.4699 2.96994C18.7599 2.67994 19.2399 2.67994 19.5299 2.96994C19.8199 3.25994 19.8199 3.73994 19.5299 4.02994L5.52994 18.0299C5.37994 18.1799 5.18994 18.2499 4.99994 18.2499Z" fill="#F03031"/>
<path id="Vector_2" d="M15.27 18.25H5C4.59 18.25 4.25 17.91 4.25 17.5V7.22998C4.25 6.81998 4.59 6.47998 5 6.47998C5.41 6.47998 5.75 6.81998 5.75 7.22998V16.75H15.27C15.68 16.75 16.02 17.09 16.02 17.5C16.02 17.91 15.68 18.25 15.27 18.25Z" fill="#F03031"/>
</g>
</g>
</svg>
