<svg width="24" height="24" viewBox="0 0 24 24" fill="none" xmlns="http://www.w3.org/2000/svg">
<g id="vuesax/outline/send">
<g id="send">
<g id="Group 1">
<path id="Vector" d="M4.9975 19.4999C5.1875 19.4999 5.3775 19.4299 5.5275 19.2799L19.5275 5.27994C19.8175 4.98994 19.8175 4.50994 19.5275 4.21994C19.2375 3.92994 18.7575 3.92994 18.4675 4.21994L4.4675 18.2199C4.1775 18.5099 4.1775 18.9899 4.4675 19.2799C4.6175 19.4299 4.8075 19.4999 4.9975 19.4999Z" fill="#08C15B"/>
<path id="Vector_2" d="M18.9974 15.77C19.4074 15.77 19.7474 15.43 19.7474 15.02V4.75C19.7474 4.34 19.4074 4 18.9974 4H8.72744C8.31744 4 7.97744 4.34 7.97744 4.75C7.97744 5.16 8.31744 5.5 8.72744 5.5H18.2474V15.02C18.2474 15.43 18.5874 15.77 18.9974 15.77Z" fill="#08C15B"/>
</g>
</g>
</g>
</svg>
